PathFileType	3	(X/Y/Z)	static.trc																																																																												
DataRate	CameraRate	NumFrames	NumMarkers	Units	OrigDataRate	OrigDataStartFrame	OrigNumFrames																																																																								
100	100	13	26	mm	100	1	260																																																																								
Frame#	Time	RAcromium			LAcromium			C7			Clavicle			VSacral			RASIS			LASIS			RHip			LHip			RKneeLat			RKneeMed			LKneeMed			LKneeLat			LShankFront			RShankFront			RAnkleLat			RAnkleMed			LAnkleMed			LAnkleLat			LToeLat			LToeTip			RToeTip			RToeLat			RHeel			LHeel			T10		
		X1	Y1	Z1	X2	Y2	Z2	X3	Y3	Z3	X4	Y4	Z4	X5	Y5	Z5	X6	Y6	Z6	X7	Y7	Z7	X8	Y8	Z8	X9	Y9	Z9	X10	Y10	Z10	X11	Y11	Z11	X12	Y12	Z12	X13	Y13	Z13	X14	Y14	Z14	X15	Y15	Z15	X16	Y16	Z16	X17	Y17	Z17	X18	Y18	Z18	X19	Y19	Z19	X20	Y20	Z20	X21	Y21	Z21	X22	Y22	Z22	X23	Y23	Z23	X24	Y24	Z24	X25	Y25	Z25	X26	Y26	Z26
1	0	889.77417	1559.1708	-445.82483	875.20465	1560.8898	-694.82874	847.20135	1583.3555	-564.78229	999.03546	1479.8757	-580.02539	794.12494	1087.9548	-550.68542	970.78558	1082.344	-426.91656	975.45752	1077.1461	-695.10181	901.71985	992.92346	-386.65863	894.02277	985.30286	-740.62177	908.64301	532.81543	-411.60645	882.98053	520.73291	-541.80896	903.54846	536.76904	-601.93787	903.05731	546.31256	-722.38092	930.00629	438.32953	-685.67487	951.1131	448.61636	-465.81024	833.33569	82.842949	-420.82111	854.763	92.356026	-504.66232	854.27698	96.15358	-625.38861	820.2276	75.057854	-703.84564	973.39532	19.374237	-744.98914	1043.0929	23.119892	-679.82977	1044.6051	21.013245	-457.25116	972.63452	19.930717	-380.10269	747.20819	10.318923	-466.25037	748.10431	9.4219503	-650.60669	788.04065	1291.6013	-559.48615
2	0.01	889.61908	1559.1819	-445.78864	875.09479	1560.899	-694.79956	847.10339	1583.3594	-564.75409	998.93713	1479.9473	-579.99768	794.11359	1087.9279	-550.71094	970.55627	1082.2988	-426.88611	975.49194	1077.2397	-695.034	901.58911	992.96051	-386.64819	894.07513	985.31879	-740.61829	908.55237	532.80463	-411.5209	882.90277	520.78619	-541.72815	903.58606	536.81848	-601.91724	903.07367	546.31525	-722.33624	929.97272	438.34586	-685.68982	951.05804	448.60629	-465.69345	833.49738	82.914879	-420.63892	854.91498	92.08844	-504.60052	854.16284	96.277061	-625.44446	820.25372	75.079414	-703.84698	973.41669	19.379414	-744.99243	1043.4127	23.522274	-679.63593	1044.5807	20.988771	-457.19888	972.67963	19.893959	-380.09012	747.1889	10.296539	-466.28363	748.10577	9.4120636	-650.65363	787.99878	1291.5852	-559.50769
3	0.02	889.46222	1559.2067	-445.75269	874.98993	1560.9362	-694.78552	846.9707	1583.3826	-564.72211	998.82129	1479.9904	-579.9433	794.08636	1087.9218	-550.72333	970.48975	1082.3152	-426.763	975.57141	1077.1443	-694.94098	901.48328	992.98639	-386.64563	894.13641	985.35742	-740.61792	908.38727	532.79559	-411.44305	882.95068	520.77655	-541.64929	903.55768	536.7854	-601.9425	903.04395	546.32526	-722.34381	929.95618	438.38058	-685.66101	951.01477	448.69089	-465.58313	833.30334	82.852341	-420.79855	854.78052	92.30246	-504.60516	854.03558	96.096306	-625.22156	820.2677	75.105843	-703.89062	973.42072	19.385551	-745.00696	1043.3799	23.472372	-679.6825	1044.563	21.025614	-457.26004	972.64374	19.893517	-380.07635	747.19324	10.317658	-466.27567	748.1131	9.4262934	-650.62775	787.90802	1291.5613	-559.47357
4	0.03	889.30853	1559.2083	-445.71014	874.88757	1560.9131	-694.75745	846.85046	1583.373	-564.70044	998.7168	1480.0325	-579.86047	794.07098	1087.8765	-550.73883	970.38141	1082.3389	-426.69116	975.58374	1077.2344	-694.86859	901.34332	993.02423	-386.61005	894.17432	985.38281	-740.60309	908.31531	532.82831	-411.35919	882.85822	520.82245	-541.59003	903.55902	536.83533	-601.88458	902.99652	546.33179	-722.33832	929.89722	438.36917	-685.70239	950.92511	448.66458	-465.45898	833.45154	82.90567	-420.5946	854.77545	92.27372	-504.60559	854.22314	96.258263	-625.4483	820.23981	75.135818	-703.86029	973.41357	19.396379	-745.00244	1043.3894	23.447271	-679.65564	1044.5863	21.007498	-457.21753	972.62579	19.84985	-379.99951	747.22253	10.290289	-466.29214	748.10345	9.4166021	-650.63892	787.87506	1291.5242	-559.48761
5	0.04	889.13086	1559.2258	-445.67242	874.76575	1560.9022	-694.71869	846.71881	1583.3665	-564.67621	998.57642	1480.0387	-579.84851	794.04321	1087.9048	-550.74121	970.35681	1082.3644	-426.67929	975.46289	1077.2225	-695.03125	901.27808	993.01489	-386.59872	894.24231	985.37823	-740.54968	908.20044	532.88147	-411.31006	882.85815	520.83563	-541.54956	903.47394	536.79895	-601.90771	902.93976	546.36829	-722.35675	929.88654	438.39478	-685.69305	950.5033	448.48892	-464.94824	833.32037	82.838196	-420.78448	854.91968	92.124466	-504.48495	854.21558	96.264748	-625.45874	820.24292	75.100189	-703.87585	973.38623	19.270313	-745.099	1043.2167	23.142664	-679.82068	1044.5558	21.003292	-457.22372	972.5885	19.795252	-380.00253	747.18951	10.32235	-466.28217	748.05884	9.454833	-650.60974	787.84967	1291.4792	-559.51312
6	0.05	888.94238	1559.2159	-445.62622	874.65088	1560.8987	-694.66656	846.58325	1583.3447	-564.64886	998.45575	1480.098	-579.80023	794.08899	1087.8799	-550.76727	970.41473	1082.4152	-426.57922	975.74457	1077.1277	-694.68884	901.19574	993.03424	-386.57693	894.27356	985.36127	-740.52924	908.15637	532.79401	-411.21848	882.89819	520.80676	-541.49579	903.52423	536.95551	-601.87482	902.97418	546.3548	-722.30829	929.8468	438.40759	-685.69745	950.86334	448.56503	-465.25769	833.2926	82.858131	-420.75522	854.75751	92.294571	-504.55212	854.2392	96.300629	-625.47583	820.25024	75.096748	-703.93787	973.45563	19.365744	-744.97333	1043.1624	23.123697	-679.83893	1044.5809	21.059658	-457.19348	972.61584	19.844757	-380.01544	747.21112	10.263276	-466.29648	748.0719	9.4653664	-650.65143	787.73663	1291.4569	-559.46729
7	0.06	888.79169	1559.2189	-445.56006	874.51874	1560.897	-694.6344	846.42383	1583.3357	-564.62384	998.36163	1480.1202	-579.68262	794.07446	1087.8535	-550.75409	970.35883	1082.4204	-426.54913	975.71173	1077.2865	-694.69562	901.17224	993.00653	-386.56268	894.33496	985.35822	-740.48834	908.08447	532.8147	-411.17059	882.76868	520.85236	-541.4873	903.39935	536.83374	-601.93066	902.96265	546.35571	-722.27997	929.84149	438.12384	-685.69006	950.74475	448.52979	-465.2038	833.31732	82.809654	-420.77444	854.83081	92.368126	-504.39621	854.18604	96.319962	-625.50153	820.23267	75.122177	-703.9303	973.48016	19.306311	-745.00574	1043.135	23.135691	-679.94354	1044.5531	21.07395	-457.18335	972.60309	19.835377	-380.02658	747.19312	10.309558	-466.27448	748.09418	9.4738007	-650.63708	787.66187	1291.3898	-559.50732
8	0.07	888.62933	1559.1895	-445.55124	874.39673	1560.8916	-694.60144	846.28693	1583.3274	-564.58765	998.23431	1480.1277	-579.67725	794.09973	1087.8524	-550.71826	970.35858	1082.3821	-426.47885	975.78015	1077.335	-694.62158	901.13904	992.9953	-386.55029	894.35382	985.38989	-740.46423	907.9798	532.85834	-411.18469	882.75665	520.81934	-541.43536	903.2851	536.85254	-601.93182	902.9386	546.37305	-722.2337	929.75806	438.45959	-685.66437	950.77136	448.51462	-465.23685	833.40082	82.845032	-420.58984	854.77008	92.260681	-504.52762	854.25873	96.24662	-625.4942	820.23334	75.089287	-703.92639	973.46204	19.379021	-745.00385	1043.0715	23.11631	-679.90247	1044.509	21.026318	-457.23438	972.62964	19.806957	-380.02856	747.18549	10.265715	-466.29016	748.09314	9.4678392	-650.65247	787.59442	1291.377	-559.4729
9	0.08	888.45435	1559.1711	-445.51437	874.29547	1560.8705	-694.5495	846.16864	1583.296	-564.56573	998.1048	1480.1566	-579.64874	794.14618	1087.8169	-550.75415	970.39459	1082.3937	-426.42148	975.76288	1077.3491	-694.66241	901.15991	992.98596	-386.51395	894.40747	985.41809	-740.43707	908.01978	532.84558	-411.0293	882.81842	520.79352	-541.44226	903.37897	536.89899	-601.82764	902.90814	546.3855	-722.21564	929.71033	438.46481	-685.67999	950.71704	448.50485	-465.14618	833.34778	82.840515	-420.62424	854.84534	92.25148	-504.39752	854.20563	96.279953	-625.50732	820.23358	75.065002	-703.93567	973.43323	19.383125	-745.00586	1043.3098	23.406155	-679.70477	1044.4946	21.062	-457.2254	972.61688	19.845917	-380.01422	747.20215	10.209677	-466.36258	748.09338	9.4778242	-650.65234	787.57916	1291.3184	-559.50439
10	0.09	888.30249	1559.1539	-445.47623	874.18433	1560.8583	-694.48468	846.02094	1583.2839	-564.49878	998.00812	1480.1799	-579.56311	794.12976	1087.7979	-550.74786	970.32751	1082.3848	-426.45148	975.77264	1077.3386	-694.68567	901.21722	992.98297	-386.52322	894.43542	985.42413	-740.42194	907.93817	532.8147	-411.11844	882.81073	520.80255	-541.4292	903.34363	536.9325	-601.82056	902.89575	546.40228	-722.22327	929.68231	438.48175	-685.63922	950.59698	448.47375	-465.0788	833.24994	82.803947	-420.771	854.77979	92.239998	-504.5054	854.22241	96.268333	-625.54889	820.23016	75.114983	-703.96484	973.55096	19.313234	-744.96008	1043.3865	23.475176	-679.72906	1044.5382	21.054924	-457.21573	972.60126	19.825798	-380.02722	747.20514	10.201753	-466.34424	748.05438	9.5002451	-650.63037	787.49725	1291.2764	-559.47211
11	0.1	888.15527	1559.132	-445.43097	874.0929	1560.8536	-694.46954	845.88751	1583.2791	-564.45514	997.89673	1480.1691	-579.49445	794.15625	1087.7484	-550.73987	970.42578	1082.4672	-426.42108	975.6424	1077.3383	-694.79535	901.2345	993.00037	-386.47897	894.48035	985.41754	-740.42664	907.98468	532.79895	-411.07068	882.76477	520.84406	-541.3844	903.2912	536.91956	-601.80701	902.84973	546.42371	-722.18591	929.62268	438.46677	-685.64716	950.62903	448.47437	-465.06607	833.38953	82.811523	-420.57956	854.93213	92.114616	-504.45486	854.23737	96.272675	-625.52716	820.15472	75.186295	-703.96228	973.42273	19.405499	-744.99835	1043.1995	23.189627	-679.85883	1044.5193	21.099548	-457.16794	972.55243	19.786318	-380.02646	747.20416	10.289422	-466.26401	748.0434	9.5076866	-650.6264	787.40509	1291.2731	-559.44885
12	0.11	888.02124	1559.1256	-445.384	873.95862	1560.8501	-694.41949	845.79272	1583.2686	-564.40735	997.79962	1480.2094	-579.42676	794.15039	1087.6953	-550.71429	970.41071	1082.4468	-426.43677	975.74469	1077.4175	-694.69098	901.24384	993.00024	-386.48166	894.5072	985.43695	-740.42816	908.04523	532.76282	-411.03131	882.83325	520.80994	-541.36865	903.22943	536.87109	-601.84814	902.87311	546.38043	-722.13678	929.59991	438.51566	-685.64282	950.63879	448.47256	-465.05533	833.29755	82.795242	-420.78339	854.92328	92.140182	-504.39722	854.22028	96.323753	-625.55493	820.25409	75.087708	-703.98486	973.44183	19.391319	-745.00513	1043.3832	23.463638	-679.7196	1044.5261	21.08847	-457.16946	972.63385	19.818159	-380.01364	747.24609	10.256732	-466.28384	748.08539	9.4936018	-650.65271	787.35992	1291.2623	-559.4436
13	0.12	887.90375	1559.1327	-445.34091	873.83826	1560.8698	-694.36737	845.64362	1583.2665	-564.37915	997.66821	1480.2462	-579.37579	794.13049	1087.6593	-550.70819	970.41467	1082.5537	-426.44794	975.75769	1077.4176	-694.66187	901.25079	992.99652	-386.47626	894.48981	985.4306	-740.4176	908.06683	532.79492	-411.00476	882.89752	520.81238	-541.35809	903.28088	536.98071	-601.86328	902.84106	546.42346	-722.1261	929.5365	438.50241	-685.67157	950.68359	448.5112	-465.02835	833.28448	82.799164	-420.76395	854.91541	92.136848	-504.43149	854.1947	96.354774	-625.56134	820.19928	75.144119	-703.98804	973.53607	19.309322	-744.95105	1043.3435	23.495014	-679.7774	1044.5283	21.020922	-457.15482	972.66669	19.793259	-379.94553	747.22614	10.285584	-466.27084	748.11188	9.4811897	-650.66827	787.23578	1291.2416	-559.4068
